<?xml version="1.0" encoding="iso-8859-1"?>
<!-- Generator: Adobe Illustrator 17.1.0, SVG Export Plug-In . SVG Version: 6.00 Build 0)  -->
<!DOCTYPE svg PUBLIC "-//W3C//DTD SVG 1.1//EN" "http://www.w3.org/Graphics/SVG/1.1/DTD/svg11.dtd">
<svg version="1.1" fill="#3372eb" id="Capa_1" xmlns="http://www.w3.org/2000/svg" xmlns:xlink="http://www.w3.org/1999/xlink" x="0px" y="0px"
	 viewBox="0 0 400.829 400.829" style="enable-background:new 0 0 400.829 400.829;" xml:space="preserve">
<path d="M37.649,101.384c9.946,0,18.93-3.914,24.646-10.738c8.433-10.067,9.327-24.859,9.758-31.969
	c0.056-0.923,0.099-1.699,0.159-2.282c0.647-6.302,1.427-12.48,1.435-12.542c0.012-0.093,0.022-0.187,0.031-0.28
	c1.172-12.374,9.883-23.034,19.876-25.18l8.713,9.657c-12.562,6.195-21.223,19.137-21.223,34.063
	c0,20.929,17.026,37.955,37.955,37.955s37.955-17.026,37.955-37.955c0-19.505-14.791-35.621-33.745-37.723l-19.325-21.42
	c-0.953-1.056-2.1-1.834-3.337-2.328c-0.992-0.397-2.071-0.624-3.201-0.642C97.285,0,97.224,0,97.164,0
	C76.556,0.022,58.019,18.721,55.771,41.73c-0.123,0.979-0.842,6.755-1.466,12.823c-0.079,0.775-0.146,1.807-0.22,3.036
	c-0.314,5.187-0.968,15.979-5.59,21.497c-2.254,2.69-6.309,4.297-10.847,4.297c-4.971,0-9,4.029-9,9S32.678,101.384,37.649,101.384z
	 M118.885,42.159c0.077,0.002,0.152,0.002,0.229,0c10.95,0.063,19.839,8.99,19.839,19.954c0,11.003-8.952,19.955-19.955,19.955
	s-19.955-8.952-19.955-19.955C99.043,51.148,107.934,42.221,118.885,42.159z M371.777,174.784c-0.057-3.708-2.382-7.002-5.857-8.296
	l-28.062-10.453c-4.659-1.735-9.841,0.635-11.575,5.292c-1.735,4.658,0.634,9.84,5.292,11.575l22.299,8.307l0.168,10.94
	l-106.126,0.001v-10.867c3.179-1.259,6.833-2.615,10.825-4.096c26.93-9.993,63.812-23.678,64.938-49.267
	c0.38-8.635-2.745-17.08-8.574-23.172c-5.396-5.64-12.467-8.745-19.907-8.745c-15.711,0-28.493,14.141-28.493,31.521
	c0,4.971,4.029,9,9,9s9-4.029,9-9c0-7.329,4.806-13.521,10.493-13.521c2.482,0,4.934,1.133,6.902,3.19
	c2.451,2.561,3.762,6.183,3.597,9.936c-0.291,6.606-8.975,12.986-16.209,17.174c-10.942,6.336-24.791,11.474-37.009,16.008
	c-6.76,2.508-12.599,4.674-17.275,6.791c-3.22,1.458-5.288,4.665-5.288,8.199v25.849c0,2.387,0.948,4.676,2.636,6.364
	c1.688,1.688,3.978,2.636,6.364,2.636h31.868l-28.12,137.585c-0.077,0.345-0.135,0.696-0.172,1.055
	c-0.111,1.063-0.03,2.112,0.219,3.105c0.324,1.306,0.934,2.499,1.759,3.51c0.829,1.019,1.885,1.86,3.109,2.442
	c0.914,0.436,1.912,0.721,2.965,0.825c0.364,0.037,0.729,0.055,1.087,0.045h98.836c0.06,0.001,0.118,0.002,0.177,0.002
	c0.285,0,0.572-0.014,0.86-0.042c1.19-0.111,2.313-0.454,3.323-0.983c0.891-0.466,1.685-1.072,2.359-1.785
	c0.002-0.002,0.003-0.004,0.005-0.006c1.2-1.268,2.036-2.885,2.338-4.684c0.108-0.638,0.148-1.295,0.113-1.96
	c-0.026-0.538-0.101-1.063-0.218-1.572l-28.11-137.538h31.866c2.411,0,4.721-0.967,6.412-2.685c1.692-1.719,2.624-4.043,2.587-6.453
	L371.777,174.784z M339.627,340.718H262.47l26.685-130.567l23.787-0.001L339.627,340.718z M247.226,137.317l-65.366,32.896
	c-2.334,1.177-5.065,1.277-7.48,0.279c-2.416-0.997-4.279-2.995-5.104-5.476c-3.831-11.506-9.864-27.002-19.58-35.626
	c-7.728,4.495-18.209,7.07-29.407,7.07s-21.68-2.575-29.407-7.071c-9.715,8.622-15.748,24.12-19.58,35.627l-24.336,73.11
	c-1.256,3.772-4.769,6.159-8.538,6.159c-0.942,0-1.9-0.148-2.844-0.463c-4.716-1.569-7.267-6.665-5.696-11.382l24.336-73.11
	c5.707-17.141,14.458-38.145,31.607-48.509c1.568-0.947,3.305-1.372,5.013-1.292c2.3-0.07,4.582,0.704,6.392,2.365
	c3.299,3.028,11.315,6.565,23.054,6.565c11.739,0,19.757-3.537,23.056-6.565c1.813-1.664,4.108-2.453,6.404-2.364
	c1.698-0.062,3.436,0.347,5,1.292c13.993,8.459,22.393,23.995,28.11,38.736l56.276-28.321c4.44-2.235,9.851-0.447,12.085,3.993
	C253.454,129.672,251.666,135.083,247.226,137.317z M179.335,285.823c0.117,0.508,0.19,1.032,0.218,1.569
	c0.035,0.658-0.004,1.31-0.109,1.942c-0.3,1.81-1.141,3.438-2.35,4.712c-0.676,0.714-1.472,1.32-2.365,1.786
	c-1.007,0.526-2.125,0.868-3.311,0.979c-0.35,0.033-0.695,0.043-1.04,0.04h-15.479l0.535,76.584l15.69,11.028
	c4.067,2.858,5.047,8.472,2.188,12.538c-1.752,2.493-4.54,3.826-7.371,3.826c-1.788,0-3.594-0.531-5.167-1.638l-18.388-12.924
	c-0.563-0.396-1.067-0.844-1.51-1.334c-2.063-1.635-3.392-4.156-3.412-6.993l-0.567-81.088h-6.896l-33.029,84.15
	c-0.43,1.165-1.104,2.251-2.008,3.171c-0.405,0.415-0.848,0.786-1.319,1.111l-18.328,12.88c-4.064,2.858-9.68,1.879-12.538-2.188
	c-2.858-4.066-1.878-9.681,2.188-12.538l16.174-11.367l29.523-75.219H86.347c-0.504,0.015-1.019-0.021-1.532-0.097
	c-1.059-0.156-2.059-0.497-2.964-0.989c-1.188-0.643-2.192-1.533-2.963-2.583c-0.763-1.036-1.309-2.241-1.571-3.548
	c-0.206-1.015-0.238-2.076-0.075-3.141c0.077-0.51,0.197-1.006,0.356-1.484l25.347-82.495l-7.291-38.017
	c-0.937-4.882,2.262-9.598,7.144-10.534c4.886-0.935,9.599,2.264,10.534,7.144l7.713,40.216c0.277,1.443,0.196,2.934-0.235,4.339
	l-22.488,73.189h25.387c0.108-0.002,0.216-0.002,0.32,0h35.511L136.19,164.607c-0.995-4.869,2.146-9.624,7.016-10.619
	c4.863-0.998,9.624,2.145,10.619,7.016L179.335,285.823z"/>
<g>
</g>
<g>
</g>
<g>
</g>
<g>
</g>
<g>
</g>
<g>
</g>
<g>
</g>
<g>
</g>
<g>
</g>
<g>
</g>
<g>
</g>
<g>
</g>
<g>
</g>
<g>
</g>
<g>
</g>
</svg>
