<svg xmlns="http://www.w3.org/2000/svg" viewBox="0 0 512 512" fill="#fcf8f8"><defs/><path d="M436 0H136c-8.284 0-15 6.716-15 15v47H76c-8.284 0-15 6.716-15 15v420c0 8.284 6.716 15 15 15h300c8.284 0 15-6.716 15-15v-47h45c8.284 0 15-6.716 15-15V15c0-8.284-6.716-15-15-15zm-75 482H91V92h270zm60-62h-30V77c0-8.284-6.716-15-15-15H151V30h270z"/><path d="M136 172h60c8.284 0 15-6.716 15-15s-6.716-15-15-15h-60c-8.284 0-15 6.716-15 15s6.716 15 15 15zM316 332c8.284 0 15-6.716 15-15V177c0-8.284-6.716-15-15-15s-15 6.716-15 15v140c0 8.284 6.716 15 15 15zM256 332c8.284 0 15-6.716 15-15V207c0-8.284-6.716-15-15-15s-15 6.716-15 15v110c0 8.284 6.716 15 15 15zM196 222c-8.284 0-15 6.716-15 15v80c0 8.284 6.716 15 15 15s15-6.716 15-15v-80c0-8.284-6.716-15-15-15zM136 332c8.284 0 15-6.716 15-15v-50c0-8.284-6.716-15-15-15s-15 6.716-15 15v50c0 8.284 6.716 15 15 15zM136 392h180c8.284 0 15-6.716 15-15s-6.716-15-15-15H136c-8.284 0-15 6.716-15 15s6.716 15 15 15zM136 452h80c8.284 0 15-6.716 15-15s-6.716-15-15-15h-80c-8.284 0-15 6.716-15 15s6.716 15 15 15z"/></svg>
