<svg xmlns="http://www.w3.org/2000/svg" fill="#3372eb" viewBox="0 0 512 512"><defs/><path d="M481.585 194.756l-178.267-55.699a215.64 215.64 0 00-2.518-14.178c-1.917-9.027-10.783-14.797-19.817-12.876a16.62 16.62 0 00-8.273 4.474V93.506c0-9.229-7.482-16.711-16.711-16.711-11.957 0-21.685-9.728-21.685-21.685S244.042 33.422 256 33.422s21.686 9.728 21.686 21.686c0 9.229 7.482 16.711 16.711 16.711s16.711-7.482 16.711-16.711C311.108 24.721 286.386 0 256 0s-55.107 24.721-55.107 55.108c0 24.563 16.155 45.424 38.396 52.518v21.867L30.416 194.755c-17.199 5.374-27.709 22.203-24.992 40.016s17.768 30.742 35.788 30.742h118.921a30.412 30.412 0 00-3.007 13.203V481.55c0 16.79 13.66 30.45 30.45 30.45h136.847c16.79 0 30.45-13.66 30.45-30.45V278.716c0-4.643-1.052-9.14-3.006-13.203h118.921c18.019 0 33.07-12.929 35.787-30.742 2.718-17.811-7.791-34.64-24.99-40.015zM41.213 232.091a2.767 2.767 0 01-2.75-2.361 2.765 2.765 0 011.921-3.074L256 159.288l15.912 4.972c.201 11.418-.887 21.605-2.694 30.53-4.101-1.975-8.618-3.044-13.218-3.044a30.518 30.518 0 00-19.391 6.973l-40.401 33.372H41.213zm280.238 246.487H190.549V280.116L256 226.051l1.633 1.349c-2.088 3.875-3.519 6.142-5.202 8.516-4.911 6.931-3.91 16.388 2.322 22.159 7.397 6.849 19.174 5.53 24.868-2.804 1.468-2.15 2.881-4.311 4.093-6.326l37.737 31.172v198.461zm152.085-248.849a2.765 2.765 0 01-2.748 2.361H315.792l-17.957-14.833c3.759-11.995 6.631-26.234 7.341-42.606l166.441 52.003a2.768 2.768 0 011.919 3.075z"/><path d="M288.682 388.351c-12.004 0-21.185 5.085-21.185 19.066v20.054c0 13.982 9.18 19.066 21.185 19.066 11.864 0 21.185-5.085 21.185-19.066v-20.054c-.001-13.981-9.321-19.066-21.185-19.066zm7.062 39.121c0 4.66-2.683 6.779-7.062 6.779-4.378 0-6.921-2.119-6.921-6.779v-20.054c0-4.661 2.542-6.779 6.921-6.779 4.379 0 7.062 2.118 7.062 6.779v20.054zM223.857 342.876c-12.004 0-21.184 5.085-21.184 19.066v20.054c0 13.982 9.179 19.066 21.184 19.066 11.865 0 21.185-5.085 21.185-19.066v-20.054c0-13.981-9.32-19.066-21.185-19.066zm7.062 39.12c0 4.661-2.683 6.779-7.062 6.779-4.378 0-6.919-2.118-6.919-6.779v-20.054c0-4.661 2.541-6.779 6.919-6.779 4.379 0 7.062 2.118 7.062 6.779v20.054zM280.492 337.085c-2.541 0-4.802 1.13-5.931 3.53L224.99 442.442c-.424.848-.706 1.836-.706 2.684 0 3.531 3.107 7.485 7.909 7.485 2.684 0 5.366-1.413 6.356-3.53l49.713-101.827c.422-.848.564-1.837.564-2.684-.002-4.519-4.381-7.485-8.334-7.485z"/></svg>
