<svg xmlns="http://www.w3.org/2000/svg" viewBox="0 0 512 512"><defs/><path xmlns="http://www.w3.org/2000/svg" fill="#fff" d="M256 151c-33.084 0-60 26.916-60 60s26.916 60 60 60 60-26.916 60-60-26.916-60-60-60zm0 90c-16.542 0-30-13.458-30-30s13.458-30 30-30 30 13.458 30 30-13.458 30-30 30z" data-original="#000000"/><path xmlns="http://www.w3.org/2000/svg" fill="#fff" d="M497 210.999h-20.79c-5.745-28.054-16.894-54.91-32.729-78.843l14.044-14.043a15 15 0 000-21.213L415.1 54.475c-5.857-5.858-15.355-5.858-21.213 0l-14.044 14.043C355.909 52.685 329.054 41.536 301 35.791V15c0-8.284-6.716-15-15-15h-60c-8.284 0-15 6.716-15 15v20.791c-28.054 5.746-54.909 16.894-78.843 32.728l-14.044-14.043c-5.857-5.858-15.355-5.858-21.213 0L54.475 96.9a15 15 0 000 21.213l14.044 14.043C52.685 156.089 41.536 182.945 35.791 211H15c-8.284 0-15 6.716-15 15v60c0 8.284 6.716 15 15 15h20.79c5.744 28.053 16.893 54.909 32.727 78.842l-14.042 14.042c-5.857 5.858-5.858 15.355 0 21.213L96.9 457.525a15 15 0 0021.212 0l14.044-14.043c23.934 15.834 50.789 26.982 78.843 32.728V497c0 8.284 6.716 15 15 15h60c8.284 0 15-6.716 15-15v-20.791c28.054-5.746 54.909-16.894 78.843-32.728l14.044 14.043a15 15 0 0021.212 0l42.426-42.427c5.858-5.858 5.857-15.355 0-21.213l-14.042-14.042c15.834-23.933 26.982-50.788 32.728-78.843H497c8.284 0 15-6.716 15-15v-60c0-8.284-6.716-15-15-15zM482 271h-18.395a15 15 0 00-14.847 12.862c-4.613 32.031-17.342 62.693-36.808 88.671a15 15 0 001.397 19.601l12.357 12.357-21.213 21.213-12.358-12.358a15 15 0 00-19.601-1.398c-25.98 19.466-56.644 32.195-88.673 36.809a15 15 0 00-12.861 14.847V482h-30v-18.395a15 15 0 00-12.861-14.847c-32.029-4.614-62.692-17.343-88.673-36.809a15 15 0 00-19.601 1.398l-12.358 12.358-21.213-21.213 12.357-12.357a15 15 0 001.397-19.601c-19.467-25.98-32.194-56.642-36.807-88.671A14.993 14.993 0 0048.396 271H30v-30h18.396a15 15 0 0014.847-12.861c4.614-32.032 17.343-62.694 36.809-88.672a15 15 0 00-1.397-19.601l-12.359-12.359 21.213-21.212 12.358 12.358c5.275 5.277 13.629 5.871 19.601 1.398 25.98-19.466 56.644-32.195 88.673-36.809A15 15 0 00241 48.395V30h30v18.395a15 15 0 0012.861 14.847c32.029 4.614 62.692 17.343 88.673 36.809a15.003 15.003 0 0019.601-1.398l12.358-12.358 21.213 21.212-12.359 12.359a15 15 0 00-1.397 19.601c19.467 25.979 32.195 56.641 36.81 88.672A15 15 0 00463.607 241H482v30z" data-original="#000000"/><path xmlns="http://www.w3.org/2000/svg" fill="#fff" d="M256 91c-90.981 0-165 74.019-165 165 0 90.783 73.854 165 165 165 91.044 0 165-74.114 165-165 0-90.981-74.019-165-165-165zm0 300c-27.569 0-53.229-8.313-74.62-22.555C185.181 330.625 217.195 301 256 301s70.819 29.625 74.62 67.445C309.229 382.687 283.569 391 256 391zm100.602-45.081C343.636 302.636 303.447 271 256 271s-87.636 31.636-100.602 74.919C134.02 322.027 121 290.507 121 256c0-74.439 60.561-135 135-135s135 60.561 135 135c0 34.507-13.02 66.027-34.398 89.919z" data-original="#000000"/></svg>