<svg xmlns="http://www.w3.org/2000/svg" fill="#e7eced" viewBox="0 0 512 512"><defs/><path d="M32.828 64.149a7.5 7.5 0 007.5 7.5h64.622c4.142 0 7.5-3.357 7.5-7.5s-3.358-7.5-7.5-7.5H40.328a7.5 7.5 0 00-7.5 7.5z"/><path d="M493.572 29.029H109.129c-4.142 0-7.5 3.357-7.5 7.5s3.358 7.5 7.5 7.5h384.442a3.432 3.432 0 013.428 3.429V84.27H15V47.458a3.432 3.432 0 013.428-3.429h60.714c4.142 0 7.5-3.357 7.5-7.5s-3.358-7.5-7.5-7.5H18.428C8.267 29.029 0 37.297 0 47.458v417.084c0 10.162 8.267 18.429 18.428 18.429H412.38c4.143 0 7.5-3.357 7.5-7.5s-3.357-7.5-7.5-7.5H18.428A3.432 3.432 0 0115 464.542V99.269h482v365.272a3.432 3.432 0 01-3.428 3.429h-51.205c-4.143 0-7.5 3.357-7.5 7.5s3.357 7.5 7.5 7.5h51.205c10.161 0 18.428-8.267 18.428-18.429V47.458c0-10.161-8.267-18.429-18.428-18.429z"/><path d="M110.901 283.62c0 80.008 65.091 145.099 145.099 145.099 80.007 0 145.098-65.091 145.098-145.099S336.007 138.521 256 138.521c-80.008 0-145.099 65.091-145.099 145.099zm275.197 0c0 71.736-58.361 130.099-130.098 130.099S125.901 355.356 125.901 283.62 184.263 153.521 256 153.521s130.098 58.363 130.098 130.099z"/><path d="M175.196 228.444a7.501 7.501 0 001.95 10.426 7.502 7.502 0 0010.426-1.951c15.513-22.653 41.094-36.178 68.428-36.178a82.825 82.825 0 0132.316 6.567L179.688 315.935a82.816 82.816 0 01-6.567-32.315c0-7.335.969-14.628 2.881-21.678a7.5 7.5 0 00-5.275-9.201 7.499 7.499 0 00-9.202 5.275 97.824 97.824 0 00-3.405 25.604c0 17.104 4.499 33.953 13.01 48.725a7.5 7.5 0 0011.802 1.559l123.352-123.351a7.502 7.502 0 00-1.559-11.803c-14.773-8.511-31.622-13.01-48.725-13.01-32.286.001-62.493 15.965-80.804 42.704zM203.583 362.971a7.505 7.505 0 003.691 5.517C222.048 377 238.897 381.499 256 381.499c53.97 0 97.878-43.908 97.878-97.879 0-17.104-4.499-33.954-13.011-48.726a7.497 7.497 0 00-11.802-1.559l-123.35 123.351a7.503 7.503 0 00-2.132 6.285zm128.728-111.668a82.818 82.818 0 016.567 32.316c0 45.699-37.179 82.879-82.878 82.879a82.826 82.826 0 01-32.316-6.568z"/></svg>
