<svg xmlns="http://www.w3.org/2000/svg" fill="#e7eced" viewBox="0 0 480 480"><defs/><path d="M456 0H24C10.746 0 0 10.746 0 24v336c0 13.254 10.746 24 24 24h173.754l-12 48H56c-13.254 0-24 10.746-24 24s10.746 24 24 24h368c13.254 0 24-10.746 24-24s-10.746-24-24-24H294.246l-12-48H456c13.254 0 24-10.746 24-24V24c0-13.254-10.746-24-24-24zM16 80h448v224H16zm448-56v40H348.945l-24-48H456a8 8 0 018 8zm-156.945-8l24 48h-62.11l-24-48zM16 24a8 8 0 018-8h203.055l24 48H16zm416 432a8 8 0 01-8 8H56a8 8 0 010-16h368a8 8 0 018 8zm-154.246-24h-75.508l12-48h51.508zM464 360a8 8 0 01-8 8H24a8 8 0 01-8-8v-40h448zm0 0"/><path d="M88 200h16v-48H88v16H72v-32H56v48h32zm0 0M216 184v16h16v-48h-16v16h-16v-32h-16v48zm0 0M128 200h32a8 8 0 008-8v-48a8 8 0 00-8-8h-32a8 8 0 00-8 8v48a8 8 0 008 8zm8-48h16v32h-16zm0 0M232 216H56a8 8 0 00-8 8v32a8 8 0 008 8h176a8 8 0 008-8v-32a8 8 0 00-8-8zm-8 32H64v-16h160zm0 0M424 216H280a8 8 0 000 16h144a8 8 0 000-16zm0 0M312 248h-32a8 8 0 000 16h32a8 8 0 000-16zm0 0M424 248h-80a8 8 0 000 16h80a8 8 0 000-16zm0 0M104 32H40a8 8 0 000 16h64a8 8 0 000-16zm0 0M144 32h-8a8 8 0 000 16h8a8 8 0 000-16zm0 0M184 32h-8a8 8 0 000 16h8a8 8 0 000-16zm0 0M408 352h16a8 8 0 000-16h-16a8 8 0 000 16zm0 0"/></svg>
