<svg xmlns="http://www.w3.org/2000/svg" fill="#fcf8f8" viewBox="0 0 479.857 479.857"><defs/><path d="M477.136 268.071c-7.027-15.692-25.621-22.986-41.451-16.253l-108.331 46.069c-24.42-29.889-62.656-44.83-101.199-38.855l-32.921-77.413c-1.56-3.667.155-7.917 3.821-9.477l98.598-41.93 22.173 52.141-30.779-2.79a8 8 0 00-6.962 2.96l-19.343 24.104-10.459-24.596a8 8 0 10-14.724 6.262l15.692 36.901c2.364 5.556 9.82 6.591 13.602 1.876l25.024-31.186 39.821 3.609c6.017.543 10.449-5.537 8.085-11.098l-27.406-64.446 26.79-11.393a7.222 7.222 0 019.477 3.822l49.187 115.663a8 8 0 0014.724-6.262L361.37 110.118c-5.023-11.807-18.643-17.311-30.463-12.284l-140.113 59.584a23.21 23.21 0 00-6.356 4.044L123.543 18.697C118.358 6.538 104.241.853 92.075 6.028l-72.874 30.99C3.822 43.558-3.908 61.334 1.968 76.644 8.234 92.962 26.727 100.84 42.835 93.99l37.298-15.861 75.28 177.022a8 8 0 1014.724-6.262L94.858 71.867l2.454-1.044a8.001 8.001 0 00-6.262-14.724L36.573 79.266c-7.698 3.271-16.627-.436-19.668-8.356-2.825-7.361 1.014-15.959 8.558-19.168l72.874-30.99c4.057-1.724 8.761.171 10.489 4.223l101.42 237.773c-44.188 13.915-76.324 55.271-76.324 103.994 0 60.103 48.897 109 109 109s109-48.897 109-109c0-20.236-5.55-39.197-15.197-55.454l105.221-44.746c7.864-3.341 17.098.277 20.586 8.069 3.63 8.103-.589 17.745-8.721 21.203l-74.065 31.497a8.001 8.001 0 006.262 14.724l74.065-31.497c16.125-6.858 24.457-25.955 17.063-42.467zM242.922 459.742c-51.28 0-93-41.72-93-93s41.72-93 93-93 93 41.72 93 93-41.72 93-93 93z"/><path d="M272.044 332.807a8 8 0 00-1.164 11.254c18.925 23.294 2.42 58.681-27.958 58.681-19.851 0-36-16.149-36-36 0-18.877 14.734-34.654 33.543-35.918a8 8 0 007.446-8.518 7.992 7.992 0 00-8.519-7.446c-27.18 1.826-48.471 24.616-48.471 51.882 0 28.673 23.327 52 52 52s52-23.327 52-52c0-11.907-4.128-23.545-11.624-32.771a8 8 0 00-11.253-1.164z"/></svg>
