<svg xmlns="http://www.w3.org/2000/svg" viewBox="0 0 511.998 511.998"><defs/><path xmlns="http://www.w3.org/2000/svg" fill="#f2f2f2" d="M454.891 417.317c-2.773-4.804-8.916-6.451-13.724-3.677l-36.521 21.083c-4.805 2.774-6.452 8.919-3.677 13.724a10.045 10.045 0 0013.724 3.678l36.521-21.083c4.804-2.775 6.452-8.919 3.677-13.725z" data-original="#000000"/><path xmlns="http://www.w3.org/2000/svg" fill="#f2f2f2" d="M509.472 291.046a9.914 9.914 0 00-.081-1.227l-.014-.081a10.078 10.078 0 00-.219-1.091c-.026-.102-.055-.2-.083-.3a9.976 9.976 0 00-.296-.868c-.039-.098-.074-.199-.116-.296a10.153 10.153 0 00-.522-1.057l-.018-.031c-.199-.344-.42-.666-.652-.977-.063-.085-.133-.166-.199-.248a9.988 9.988 0 00-.822-.913 9.882 9.882 0 00-.838-.737c-.021-.016-.04-.035-.061-.051a10.03 10.03 0 00-1.021-.683c-.026-.015-.049-.035-.075-.05l-116.696-67.369V80.316c0-.029-.005-.056-.006-.085a10.012 10.012 0 00-.082-1.233l-.011-.061a9.806 9.806 0 00-.224-1.114c-.024-.095-.052-.19-.079-.285a10.143 10.143 0 00-.303-.89c-.036-.092-.069-.186-.108-.276a10.173 10.173 0 00-.532-1.079c-.203-.352-.429-.68-.666-.998-.06-.081-.127-.158-.19-.237a9.823 9.823 0 00-.826-.919 10.103 10.103 0 00-.84-.74l-.059-.05c-.328-.251-.67-.477-1.024-.685-.025-.015-.047-.034-.072-.048L261.023 1.346a10.048 10.048 0 00-10.047 0L129.265 71.615c-.024.014-.044.031-.068.045-.356.209-.7.436-1.031.69-.016.012-.03.026-.046.039a10.057 10.057 0 00-1.676 1.666c-.063.079-.13.157-.191.239-.237.317-.462.646-.665.997-.203.352-.375.711-.531 1.075-.04.094-.074.192-.112.287a9.852 9.852 0 00-.381 1.17c-.093.365-.17.732-.221 1.101-.003.025-.01.048-.013.073-.054.409-.078.82-.081 1.229 0 .029-.006.058-.006.087v134.749L7.545 282.433c-.025.014-.046.033-.07.047a9.845 9.845 0 00-1.028.688l-.047.039c-.297.231-.58.483-.852.751-.072.07-.141.143-.211.215a10.05 10.05 0 00-.612.7c-.064.08-.132.159-.193.241-.234.313-.456.638-.657.985l-.01.016a9.97 9.97 0 00-.527 1.068c-.041.096-.076.196-.115.294a10.374 10.374 0 00-.6 2.262l-.014.079a9.933 9.933 0 00-.081 1.229c0 .029-.006.057-.006.086v140.549h.001c0 3.59 1.915 6.906 5.023 8.701l121.721 70.268c.024.014.051.023.075.037.358.203.725.387 1.108.546l.069.025c.345.14.7.257 1.063.359.099.028.199.052.298.076.296.073.598.132.904.178.103.016.206.035.31.047.392.046.79.077 1.194.077.404 0 .802-.031 1.194-.077.104-.012.207-.032.31-.047.306-.046.607-.104.903-.178.1-.025.2-.049.3-.077.361-.1.714-.218 1.057-.357.025-.01.05-.017.075-.028a9.832 9.832 0 001.104-.544c.025-.014.052-.024.078-.038l116.687-67.369 116.687 67.369c.026.015.053.024.079.039.356.202.722.385 1.103.543.026.011.053.018.079.029.342.139.694.255 1.054.356.1.028.201.052.301.077.295.073.597.132.902.178.104.016.207.035.311.047.392.046.789.077 1.194.077.405 0 .802-.031 1.194-.077.104-.012.207-.032.311-.047.305-.046.607-.104.902-.178.1-.025.201-.049.301-.077.36-.1.711-.217 1.054-.356.026-.01.053-.018.079-.029.381-.158.747-.342 1.103-.543.026-.015.053-.024.079-.039l121.721-70.268a10.045 10.045 0 005.024-8.701V291.135c.004-.031-.002-.059-.002-.089zm-90.884-34.981L316.97 314.734l-40.877-23.601 101.616-58.667 40.879 23.599zm-50.925-41l-101.616 58.667V156.396L367.663 97.72v117.345zM255.999 21.648l40.877 23.6-101.619 58.67-40.875-23.602 101.617-58.668zM134.288 232.467l40.872 23.597-101.62 58.668-40.876-23.598 101.624-58.667zm-10.046 252.084L22.615 425.883V308.536l43.286 24.989a10.009 10.009 0 004.845 2.797l53.496 30.884v117.345zm10.047-134.748l-40.653-23.469 101.617-58.669 40.652 23.47-101.616 58.668zm111.663 76.08L144.336 484.55V367.205l101.616-58.669v117.347zm0-152.15l-101.616-58.667V97.719l43.259 24.98a10.01 10.01 0 004.881 2.818l53.477 30.879v117.337zm-30.6-158.211L316.97 56.849l40.646 23.467L256 138.993l-40.648-23.471zm152.31 369.027l-101.615-58.666V308.536l43.285 24.99a10.015 10.015 0 004.836 2.792l53.495 30.885v117.346zm10.048-134.746l-40.646-23.467 101.618-58.67 40.652 23.469-101.624 58.668zm111.673 76.08l-101.626 58.668V367.205l101.626-58.669v117.347z" data-original="#000000"/><path xmlns="http://www.w3.org/2000/svg" fill="#f2f2f2" d="M471.342 399.171c-12.93 0-12.951 20.094 0 20.094 12.929 0 12.951-20.094 0-20.094z" data-original="#000000"/></svg>