<svg xmlns="http://www.w3.org/2000/svg" viewBox="0 0 443 443"><defs/><path xmlns="http://www.w3.org/2000/svg" fill="#fff" d="M354 8a8 8 0 00-8-8H8a8 8 0 00-8 8v427a8 8 0 008 8h338a8 8 0 008-8zm-120 8h65v93.871L270.469 92.38a7.636 7.636 0 00-8.149 0L234 109.87zM16 16h202v108.16a7.744 7.744 0 003.879 6.98 7.735 7.735 0 007.98-.16l36.48-22.402 36.509 22.402a7.978 7.978 0 008.074.157A7.99 7.99 0 00315 124.16V16h23v410H16zm0 0" data-original="#000000"/><path xmlns="http://www.w3.org/2000/svg" fill="#fff" d="M305.992 366H48.008a8 8 0 000 16h257.984a8 8 0 000-16zm0 0M305.992 326H48.008a8 8 0 000 16h257.984a8 8 0 000-16zm0 0M48.008 302h127.984a8 8 0 000-16H48.008a8 8 0 000 16zm0 0M52.488 219.828l72.086 23.258c1.59.516 3.301.516 4.887 0l72.055-23.258a7.94 7.94 0 005.484-7.613v-98.43a7.945 7.945 0 00-5.488-7.613l-72.086-23.258a7.95 7.95 0 00-4.899 0L52.48 106.172a7.936 7.936 0 00-5.48 7.613v98.43a7.945 7.945 0 005.488 7.613zM63 124.77l55 17.773v81.621l-55-17.773zm71 100.039v-81.621l57-18.418v81.62zm-7-125.875l46.05 14.851L127 128.637l-46.05-14.852zm0 0" data-original="#000000"/></svg>