<svg xmlns="http://www.w3.org/2000/svg" viewBox="0 0 512 512"><defs/><path xmlns="http://www.w3.org/2000/svg" fill="#fff" d="M502 54H357.473c-5.524 0-10 4.477-10 10s4.476 10 10 10H492v418H79.184C46.55 492 20 465.45 20 432.816c0-25.921 21.09-47.015 47.016-47.015 20.343 0 36.898 16.512 36.984 36.836v.308c-.082 15.77-12.934 28.57-28.723 28.57-12.082 0-21.914-9.831-21.914-21.913 0-8.989 7.313-16.301 16.301-16.301 5.524 0 10-4.48 10-10 0-5.524-4.476-10-10-10-20.016 0-36.3 16.285-36.3 36.3 0 23.114 18.804 41.915 41.913 41.915 25.508 0 46.485-19.703 48.547-44.688a10.2 10.2 0 00.176-1.84v-2.043c0-.05.004-.101.004-.152 0-.055-.004-.105-.004-.156V74h153.098c5.523 0 10-4.477 10-10s-4.477-10-10-10H123.922C122.363 23.96 97.434 0 67.016 0 30.063 0 0 30.063 0 67.016v365.8C0 476.48 35.52 512 79.184 512H502c5.523 0 10-4.48 10-10V64c0-5.523-4.477-10-10-10zM39.996 28.574v116.024c0 5.523 4.48 10 10 10 5.524 0 10-4.477 10-10V20.528a47.281 47.281 0 017.02-.528C87.406 20 104 36.594 104 56.988v322.5c-9.96-8.523-22.879-13.683-36.984-13.683-18.301 0-34.91 7.383-47.016 19.316V67.016c0-15.875 7.914-29.926 19.996-38.442zm0 0" data-original="#000000"/><path xmlns="http://www.w3.org/2000/svg" fill="#fff" d="M317.25 74c2.629 0 5.21-1.07 7.07-2.93 1.86-1.86 2.93-4.441 2.93-7.07s-1.07-5.21-2.93-7.07c-1.86-1.86-4.441-2.93-7.07-2.93s-5.21 1.07-7.07 2.93c-1.86 1.86-2.93 4.441-2.93 7.07s1.07 5.21 2.93 7.07a10.08 10.08 0 007.07 2.93zm0 0M448 133H160.7c-5.524 0-10 4.477-10 10s4.476 10 10 10H448c5.523 0 10-4.477 10-10s-4.477-10-10-10zm0 0M177.668 189h-16.969c-5.523 0-10 4.477-10 10s4.477 10 10 10h16.969c5.523 0 10-4.477 10-10s-4.477-10-10-10zm0 0M177.668 245h-16.969c-5.523 0-10 4.477-10 10s4.477 10 10 10h16.969c5.523 0 10-4.477 10-10s-4.477-10-10-10zm0 0M177.668 301h-16.969c-5.523 0-10 4.477-10 10 0 5.52 4.477 10 10 10h16.969c5.523 0 10-4.48 10-10 0-5.523-4.477-10-10-10zm0 0M177.668 357h-16.969c-5.523 0-10 4.477-10 10 0 5.52 4.477 10 10 10h16.969c5.523 0 10-4.48 10-10 0-5.523-4.477-10-10-10zm0 0M177.668 413h-16.969c-5.523 0-10 4.477-10 10 0 5.52 4.477 10 10 10h16.969c5.523 0 10-4.48 10-10 0-5.523-4.477-10-10-10zm0 0M461.227 221.91c4.785-2.762 6.421-8.875 3.66-13.66L456.66 194a10.002 10.002 0 00-17.32 0l-8.227 14.25c-2.761 4.781-1.125 10.898 3.66 13.66a9.955 9.955 0 003.227 1.172V334.91a9.94 9.94 0 00-3.266 1.18c-4.78 2.762-6.421 8.875-3.66 13.66l8.23 14.25a9.997 9.997 0 008.66 5c3.571 0 6.872-1.906 8.661-5l8.227-14.25c2.761-4.785 1.12-10.898-3.66-13.66a9.976 9.976 0 00-3.192-1.168V223.074c1.105-.199 2.2-.57 3.227-1.164zm0 0M386.625 406.129c-4.785-2.758-10.898-1.121-13.66 3.66a9.984 9.984 0 00-1.176 3.23H259.965a10.056 10.056 0 00-1.18-3.265c-2.762-4.781-8.879-6.422-13.66-3.66l-14.25 8.226a10.002 10.002 0 000 17.32l14.25 8.231a10.003 10.003 0 0013.66-3.66 9.966 9.966 0 001.164-3.191h111.84a9.988 9.988 0 0014.836 6.887l14.25-8.227a10.002 10.002 0 000-17.32zm0 0M405.875 199c0-5.523-4.48-10-10-10h-160c-5.523 0-10 4.477-10 10v41.492c0 5.524 4.477 10 10 10 5.52 0 10-4.476 10-10V209h34.734v57.367c0 4.031 2.422 7.668 6.141 9.227a10.003 10.003 0 0010.883-2.106l18.242-17.988 18.238 17.988a9.998 9.998 0 007.024 2.88 9.998 9.998 0 0010-10V209h34.734v140h-140v-32.105c0-5.524-4.476-10-10-10-5.52 0-10 4.476-10 10V359c0 5.52 4.48 10 10 10h160c5.524 0 10-4.48 10-10V199zm-74.738 43.46l-8.242-8.124a9.957 9.957 0 00-7.02-2.879c-2.54 0-5.074.957-7.023 2.879l-8.239 8.125V209h30.524zm0 0" data-original="#000000"/><path xmlns="http://www.w3.org/2000/svg" fill="#fff" d="M235.871 289c2.64 0 5.211-1.07 7.07-2.93 1.868-1.86 2.93-4.441 2.93-7.07s-1.062-5.21-2.93-7.07a10.066 10.066 0 00-7.07-2.93 10.08 10.08 0 00-7.07 2.93c-1.86 1.86-2.93 4.441-2.93 7.07s1.07 5.21 2.93 7.07a10.08 10.08 0 007.07 2.93zm0 0M362.977 326.895c5.523 0 10-4.477 10-10 0-5.524-4.477-10-10-10h-29.473c-5.524 0-10 4.476-10 10 0 5.523 4.476 10 10 10zm0 0M50 197.2c2.633 0 5.21-1.071 7.07-2.93A10.093 10.093 0 0060 187.2c0-2.63-1.07-5.208-2.93-7.079A10.065 10.065 0 0050 177.2c-2.64 0-5.21 1.063-7.07 2.922A10.085 10.085 0 0040 187.2c0 2.633 1.063 5.2 2.93 7.07 1.86 1.86 4.43 2.93 7.07 2.93zm0 0" data-original="#000000"/></svg>