<?xml version="1.0" encoding="iso-8859-1"?>
<!-- Generator: Adobe Illustrator 17.1.0, SVG Export Plug-In . SVG Version: 6.00 Build 0)  -->
<!DOCTYPE svg PUBLIC "-//W3C//DTD SVG 1.1//EN" "http://www.w3.org/Graphics/SVG/1.1/DTD/svg11.dtd">
<svg version="1.1" fill="#3372eb" id="Capa_1" xmlns="http://www.w3.org/2000/svg" xmlns:xlink="http://www.w3.org/1999/xlink" x="0px" y="0px"
	 viewBox="0 0 365.533 365.533" style="enable-background:new 0 0 365.533 365.533;" xml:space="preserve">
<path d="M365.533,33.25V341.05c0,0.17-0.016,0.336-0.025,0.503c0.009,0.167,0.025,0.333,0.025,0.503c0,4.971-4.029,9-9,9h-22.236
	c-4.971,0-9-4.029-9-9s4.029-9,9-9h13.236V285.88H111.306c-4.971,0-9-4.029-9-9s4.029-9,9-9h236.227V42.25h-92.015l-2.061,11.403
	c-0.786,4.351-4.576,7.401-8.846,7.401c-0.531,0-1.07-0.048-1.611-0.146c-4.892-0.884-8.14-5.565-7.256-10.457l1.482-8.202h-66.822
	l-2.061,11.403c-0.786,4.35-4.576,7.401-8.846,7.401c-0.531,0-1.069-0.048-1.611-0.146c-4.891-0.884-8.14-5.565-7.256-10.457
	l1.482-8.202h-40.806c-4.971,0-9-4.029-9-9s4.029-9,9-9h44.059l0.429-2.375c0.884-4.892,5.562-8.14,10.457-7.256
	c4.615,0.834,7.763,5.049,7.363,9.631h66.865l0.429-2.375c0.884-4.893,5.567-8.14,10.457-7.256c4.615,0.834,7.763,5.049,7.363,9.631
	h97.804C361.504,24.25,365.533,28.279,365.533,33.25z M13.82,53.652c0-20.693,16.835-37.528,37.528-37.528
	c20.694,0,37.53,16.835,37.53,37.528s-16.836,37.529-37.53,37.529C30.655,91.181,13.82,74.345,13.82,53.652z M31.82,53.652
	c0,10.769,8.76,19.529,19.528,19.529c10.769,0,19.53-8.761,19.53-19.529c0-10.768-8.761-19.528-19.53-19.528
	C40.58,34.124,31.82,42.884,31.82,53.652z M75.664,333.057H60.347V165.426c0-4.971-4.029-9-9-9s-9,4.029-9,9v176.602
	c0,0.01-0.001,0.019-0.001,0.029c0,2.175,0.771,4.169,2.055,5.725c1.651,2.001,4.149,3.277,6.946,3.277
	c0.013,0,0.026-0.002,0.039-0.002h24.278c4.971,0,9-4.029,9-9S80.635,333.057,75.664,333.057z M117.817,240.033
	c0.983,0,1.983-0.163,2.965-0.505c4.693-1.638,7.17-6.77,5.533-11.463l-24.635-70.61c-6.051-17.347-17.313-49.634-51.873-49.634
	c-27.998,0-46.71,20.539-47.672,52.326l-2.131,70.611c-0.15,4.969,3.756,9.117,8.725,9.268c0.092,0.003,0.185,0.004,0.276,0.004
	c4.845,0,8.844-3.853,8.991-8.729l2.131-70.61c0.317-10.484,3.844-34.87,29.68-34.87c18.304,0,26.379,13.201,34.877,37.563
	l24.635,70.611C110.615,237.707,114.096,240.033,117.817,240.033z M104.541,124.797c4.606,1.866,9.855-0.35,11.724-4.956
	c8.688-21.411,18.23-30.145,32.937-30.145h20.569c14.706,0,24.249,8.733,32.938,30.145l26.937,66.389
	c1.419,3.498,4.787,5.618,8.343,5.618c0.608,0,1.222-0.068,1.832-0.195c0.598,0.125,1.217,0.192,1.852,0.192h25.225
	c0.006,0,0.013,0.001,0.019,0.001c4.971,0,9-4.029,9-9v-59.393c0-4.971-4.029-9-9-9s-9,4.029-9,9v50.392h-13.87l-24.658-60.772
	c-7.209-17.762-20.195-41.376-49.617-41.376h-20.573c-29.42,0-42.405,23.614-49.612,41.377
	C97.717,117.678,99.935,122.927,104.541,124.797z M137.17,114.453c-4.971,0-9,4.029-9,9v59.393c0,4.971,4.029,9,9,9
	c0.007,0,0.013-0.001,0.019-0.001h44.59c0.006,0,0.013,0.001,0.019,0.001c4.971,0,9-4.029,9-9v-59.393c0-4.971-4.029-9-9-9
	s-9,4.029-9,9v50.392H146.17v-50.392C146.17,118.482,142.14,114.453,137.17,114.453z M331.438,179.462l-26.937-66.39
	c-7.21-17.762-20.197-41.376-49.617-41.376h-20.572c-4.971,0-8.998,4.029-8.998,9s4.03,9,9.001,9h20.569
	c14.705,0,24.248,8.733,32.938,30.145l26.936,66.389c1.419,3.498,4.787,5.618,8.343,5.618c1.127,0,2.272-0.213,3.381-0.662
	C331.088,189.316,333.306,184.068,331.438,179.462z M312.303,238.365c-4.971,0-9,4.029-9,9s4.029,9,9,9h10.796c4.971,0,9-4.029,9-9
	s-4.029-9-9-9H312.303z M276.699,238.365c-4.971,0-9,4.029-9,9s4.029,9,9,9h10.795c4.971,0,9-4.029,9-9s-4.029-9-9-9H276.699z"/>
<g>
</g>
<g>
</g>
<g>
</g>
<g>
</g>
<g>
</g>
<g>
</g>
<g>
</g>
<g>
</g>
<g>
</g>
<g>
</g>
<g>
</g>
<g>
</g>
<g>
</g>
<g>
</g>
<g>
</g>
</svg>
