<svg xmlns="http://www.w3.org/2000/svg" fill="#e7eced" viewBox="0 0 32 32"><defs/><g data-name="6-User"><path d="M2 29c0-.78 1.92-1.7 3.24-2h.11l8-3a1 1 0 00.65-1v-2.69a1 1 0 00-.57-.9A6 6 0 0110 14a1 1 0 00-1-1v-2a1 1 0 001-1V8a6 6 0 0112 0v2a1 1 0 001 1v2h2v-2a2 2 0 00-1-1.73V8A8 8 0 008 8v1.27A2 2 0 007 11v2a2 2 0 001 1.75 8.07 8.07 0 004 6.16v1.39L4.7 25c-.91.23-4.7 1.37-4.7 4v2a1 1 0 001 1h14v-2H2z"/><path d="M24 16a8 8 0 108 8 8 8 0 00-8-8zm0 14a6 6 0 116-6 6 6 0 01-6 6z"/><path d="M23 20h2v4h-2zM23 26h2v2h-2z"/></g></svg>